<svg xmlns="http://www.w3.org/2000/svg" version="1.1" xmlns:xlink="http://www.w3.org/1999/xlink" xmlns:svgjs="http://svgjs.dev/svgjs" viewBox="0 0 800 800"><defs><linearGradient x1="50%" y1="0%" x2="50%" y2="100%" id="ffflurry-grad" gradientTransform="rotate(270)"><stop stop-color="hsl(238, 82%, 13%)" stop-opacity="1" offset="0%"></stop><stop stop-color="hsl(230, 55%, 50%)" stop-opacity="1" offset="45%"></stop><stop stop-color="hsl(230, 55%, 70%)" stop-opacity="1" offset="100%"></stop></linearGradient></defs><rect width="100%" height="100%" fill="hsl(238, 82%, 13%)"></rect><g fill="url(#ffflurry-grad)"><rect width="344" height="7" x="-22" y="247.5" rx="3.5" transform="rotate(26, 150, 251)" opacity="0.38"></rect><rect width="28" height="7" x="735" y="550.5" rx="3.5" transform="rotate(26, 749, 554)" opacity="0.62"></rect><rect width="226" height="7" x="-85" y="602.5" rx="3.5" transform="rotate(26, 28, 606)" opacity="0.09"></rect><rect width="215" height="7" x="264.5" y="417.5" rx="3.5" transform="rotate(26, 372, 421)" opacity="0.85"></rect><rect width="270" height="7" x="93" y="297.5" rx="3.5" transform="rotate(26, 228, 301)" opacity="0.47"></rect><rect width="365" height="7" x="-124.5" y="104.5" rx="3.5" transform="rotate(26, 58, 108)" opacity="0.11"></rect><rect width="66" height="7" x="711" y="770.5" rx="3.5" transform="rotate(26, 744, 774)" opacity="0.49"></rect><rect width="521" height="7" x="-93.5" y="416.5" rx="3.5" transform="rotate(26, 167, 420)" opacity="0.81"></rect><rect width="209" height="7" x="630.5" y="668.5" rx="3.5" transform="rotate(26, 735, 672)" opacity="0.66"></rect><rect width="139" height="7" x="93.5" y="318.5" rx="3.5" transform="rotate(26, 163, 322)" opacity="0.75"></rect><rect width="152" height="7" x="560" y="451.5" rx="3.5" transform="rotate(26, 636, 455)" opacity="0.92"></rect><rect width="152" height="7" x="244" y="23.5" rx="3.5" transform="rotate(26, 320, 27)" opacity="0.44"></rect><rect width="183" height="7" x="53.5" y="165.5" rx="3.5" transform="rotate(26, 145, 169)" opacity="0.48"></rect><rect width="189" height="7" x="6.5" y="222.5" rx="3.5" transform="rotate(26, 101, 226)" opacity="0.17"></rect><rect width="398" height="7" x="84" y="80.5" rx="3.5" transform="rotate(26, 283, 84)" opacity="0.93"></rect><rect width="135" height="7" x="688.5" y="404.5" rx="3.5" transform="rotate(26, 756, 408)" opacity="0.66"></rect><rect width="462" height="7" x="-83" y="671.5" rx="3.5" transform="rotate(26, 148, 675)" opacity="0.95"></rect><rect width="276" height="7" x="586" y="618.5" rx="3.5" transform="rotate(26, 724, 622)" opacity="0.59"></rect><rect width="412" height="7" x="401" y="33.5" rx="3.5" transform="rotate(26, 607, 37)" opacity="0.20"></rect><rect width="398" height="7" x="454" y="107.5" rx="3.5" transform="rotate(26, 653, 111)" opacity="0.20"></rect><rect width="433" height="7" x="349.5" y="341.5" rx="3.5" transform="rotate(26, 566, 345)" opacity="0.56"></rect><rect width="483" height="7" x="412.5" y="725.5" rx="3.5" transform="rotate(26, 654, 729)" opacity="0.07"></rect><rect width="116" height="7" x="713" y="184.5" rx="3.5" transform="rotate(26, 771, 188)" opacity="0.98"></rect><rect width="252" height="7" x="144" y="240.5" rx="3.5" transform="rotate(26, 270, 244)" opacity="0.99"></rect><rect width="124" height="7" x="143" y="220.5" rx="3.5" transform="rotate(26, 205, 224)" opacity="0.45"></rect><rect width="235" height="7" x="-98.5" y="160.5" rx="3.5" transform="rotate(26, 19, 164)" opacity="0.92"></rect><rect width="227" height="7" x="531.5" y="296.5" rx="3.5" transform="rotate(26, 645, 300)" opacity="0.15"></rect><rect width="315" height="7" x="94.5" y="760.5" rx="3.5" transform="rotate(26, 252, 764)" opacity="0.58"></rect><rect width="496" height="7" x="-69" y="586.5" rx="3.5" transform="rotate(26, 179, 590)" opacity="0.28"></rect><rect width="183" height="7" x="279.5" y="273.5" rx="3.5" transform="rotate(26, 371, 277)" opacity="0.65"></rect><rect width="186" height="7" x="292" y="59.5" rx="3.5" transform="rotate(26, 385, 63)" opacity="0.58"></rect><rect width="357" height="7" x="-67.5" y="38.5" rx="3.5" transform="rotate(26, 111, 42)" opacity="0.65"></rect><rect width="400" height="7" x="-47" y="104.5" rx="3.5" transform="rotate(26, 153, 108)" opacity="0.46"></rect><rect width="317" height="7" x="600.5" y="716.5" rx="3.5" transform="rotate(26, 759, 720)" opacity="0.27"></rect><rect width="220" height="7" x="291" y="502.5" rx="3.5" transform="rotate(26, 401, 506)" opacity="0.35"></rect><rect width="266" height="7" x="144" y="453.5" rx="3.5" transform="rotate(26, 277, 457)" opacity="0.21"></rect><rect width="295" height="7" x="519.5" y="557.5" rx="3.5" transform="rotate(26, 667, 561)" opacity="0.73"></rect><rect width="242" height="7" x="101" y="688.5" rx="3.5" transform="rotate(26, 222, 692)" opacity="0.50"></rect><rect width="576" height="7" x="198" y="273.5" rx="3.5" transform="rotate(26, 486, 277)" opacity="0.58"></rect><rect width="93" height="7" x="667.5" y="223.5" rx="3.5" transform="rotate(26, 714, 227)" opacity="0.59"></rect><rect width="475" height="7" x="187.5" y="707.5" rx="3.5" transform="rotate(26, 425, 711)" opacity="0.34"></rect><rect width="113" height="7" x="449.5" y="692.5" rx="3.5" transform="rotate(26, 506, 696)" opacity="0.93"></rect><rect width="519" height="7" x="-217.5" y="497.5" rx="3.5" transform="rotate(26, 42, 501)" opacity="0.25"></rect><rect width="60" height="7" x="557" y="163.5" rx="3.5" transform="rotate(26, 587, 167)" opacity="0.97"></rect><rect width="180" height="7" x="-1" y="326.5" rx="3.5" transform="rotate(26, 89, 330)" opacity="0.76"></rect><rect width="261" height="7" x="640.5" y="91.5" rx="3.5" transform="rotate(26, 771, 95)" opacity="0.29"></rect><rect width="90" height="7" x="667" y="139.5" rx="3.5" transform="rotate(26, 712, 143)" opacity="0.23"></rect><rect width="480" height="7" x="118" y="593.5" rx="3.5" transform="rotate(26, 358, 597)" opacity="0.86"></rect><rect width="370" height="7" x="546" y="31.5" rx="3.5" transform="rotate(26, 731, 35)" opacity="0.60"></rect><rect width="470" height="7" x="224" y="584.5" rx="3.5" transform="rotate(26, 459, 588)" opacity="0.44"></rect><rect width="44" height="7" x="11" y="35.5" rx="3.5" transform="rotate(26, 33, 39)" opacity="0.50"></rect><rect width="313" height="7" x="-86.5" y="174.5" rx="3.5" transform="rotate(26, 70, 178)" opacity="0.13"></rect><rect width="28" height="7" x="191" y="23.5" rx="3.5" transform="rotate(26, 205, 27)" opacity="0.78"></rect><rect width="269" height="7" x="-80.5" y="686.5" rx="3.5" transform="rotate(26, 54, 690)" opacity="0.42"></rect><rect width="401" height="7" x="-75.5" y="505.5" rx="3.5" transform="rotate(26, 125, 509)" opacity="0.30"></rect><rect width="148" height="7" x="21" y="592.5" rx="3.5" transform="rotate(26, 95, 596)" opacity="0.31"></rect><rect width="454" height="7" x="-143" y="760.5" rx="3.5" transform="rotate(26, 84, 764)" opacity="0.96"></rect><rect width="290" height="7" x="-112" y="264.5" rx="3.5" transform="rotate(26, 33, 268)" opacity="0.32"></rect><rect width="80" height="7" x="460" y="444.5" rx="3.5" transform="rotate(26, 500, 448)" opacity="0.73"></rect><rect width="353" height="7" x="542.5" y="296.5" rx="3.5" transform="rotate(26, 719, 300)" opacity="0.18"></rect><rect width="296" height="7" x="423" y="633.5" rx="3.5" transform="rotate(26, 571, 637)" opacity="0.34"></rect><rect width="236" height="7" x="421" y="108.5" rx="3.5" transform="rotate(26, 539, 112)" opacity="0.47"></rect><rect width="253" height="7" x="555.5" y="371.5" rx="3.5" transform="rotate(26, 682, 375)" opacity="0.53"></rect><rect width="389" height="7" x="24.5" y="83.5" rx="3.5" transform="rotate(26, 219, 87)" opacity="0.21"></rect><rect width="174" height="7" x="131" y="516.5" rx="3.5" transform="rotate(26, 218, 520)" opacity="0.12"></rect><rect width="207" height="7" x="371.5" y="770.5" rx="3.5" transform="rotate(26, 475, 774)" opacity="0.71"></rect><rect width="113" height="7" x="208.5" y="371.5" rx="3.5" transform="rotate(26, 265, 375)" opacity="0.51"></rect><rect width="472" height="7" x="113" y="709.5" rx="3.5" transform="rotate(26, 349, 713)" opacity="0.71"></rect><rect width="190" height="7" x="176" y="618.5" rx="3.5" transform="rotate(26, 271, 622)" opacity="0.67"></rect><rect width="133" height="7" x="322.5" y="127.5" rx="3.5" transform="rotate(26, 389, 131)" opacity="0.98"></rect><rect width="72" height="7" x="364" y="203.5" rx="3.5" transform="rotate(26, 400, 207)" opacity="0.16"></rect><rect width="368" height="7" x="286" y="32.5" rx="3.5" transform="rotate(26, 470, 36)" opacity="0.83"></rect><rect width="64" height="7" x="744" y="289.5" rx="3.5" transform="rotate(26, 776, 293)" opacity="0.47"></rect><rect width="144" height="7" x="505" y="540.5" rx="3.5" transform="rotate(26, 577, 544)" opacity="0.35"></rect><rect width="369" height="7" x="-136.5" y="398.5" rx="3.5" transform="rotate(26, 48, 402)" opacity="0.88"></rect><rect width="38" height="7" x="200" y="154.5" rx="3.5" transform="rotate(26, 219, 158)" opacity="0.14"></rect><rect width="259" height="7" x="449.5" y="747.5" rx="3.5" transform="rotate(26, 579, 751)" opacity="0.33"></rect><rect width="158" height="7" x="244" y="138.5" rx="3.5" transform="rotate(26, 323, 142)" opacity="0.50"></rect><rect width="318" height="7" x="454" y="222.5" rx="3.5" transform="rotate(26, 613, 226)" opacity="0.54"></rect><rect width="342" height="7" x="139" y="312.5" rx="3.5" transform="rotate(26, 310, 316)" opacity="0.95"></rect><rect width="181" height="7" x="316.5" y="342.5" rx="3.5" transform="rotate(26, 407, 346)" opacity="0.52"></rect><rect width="220" height="7" x="165" y="174.5" rx="3.5" transform="rotate(26, 275, 178)" opacity="0.67"></rect><rect width="102" height="7" x="277" y="224.5" rx="3.5" transform="rotate(26, 328, 228)" opacity="0.48"></rect><rect width="165" height="7" x="678.5" y="488.5" rx="3.5" transform="rotate(26, 761, 492)" opacity="0.44"></rect><rect width="363" height="7" x="288.5" y="146.5" rx="3.5" transform="rotate(26, 470, 150)" opacity="0.80"></rect><rect width="114" height="7" x="248" y="530.5" rx="3.5" transform="rotate(26, 305, 534)" opacity="0.95"></rect></g></svg>