<svg xmlns="http://www.w3.org/2000/svg" version="1.1" xmlns:xlink="http://www.w3.org/1999/xlink" xmlns:svgjs="http://svgjs.dev/svgjs" viewBox="0 0 1422 800" width="1422" height="800"><g transform="scale(1) rotate(112) translate(0 0) skewX(0) skewY(0)" transform-origin="711 400"><rect width="2844" height="1600" x="-711" y="-400" fill="url(#rrreplicate-pattern1)"></rect><rect width="2844" height="1600" x="-711" y="-400" fill="url(#rrreplicate-pattern2)"></rect><rect width="2844" height="1600" x="-711" y="-400" fill="url(#rrreplicate-pattern3)"></rect></g><defs><pattern id="rrreplicate-pattern1" width="378" height="378" patternUnits="userSpaceOnUse" patternTransform="rotate(0)" stroke-width="4" fill="none" stroke="#7c8cce" stroke-opacity="0.56">
      <line x1="63" y1="0" x2="63" y2="378"></line><line x1="189" y1="0" x2="189" y2="378"></line><line x1="315" y1="0" x2="315" y2="378"></line>
      </pattern><pattern id="rrreplicate-pattern2" width="378" height="378" patternUnits="userSpaceOnUse" patternTransform="rotate(138)" stroke-opacity="0.68" stroke-width="2.6" fill="none" stroke="#238968">
      <line x1="37.8" y1="0" x2="37.8" y2="378"></line><line x1="113.39999999999999" y1="0" x2="113.39999999999999" y2="378"></line><line x1="189" y1="0" x2="189" y2="378"></line><line x1="264.59999999999997" y1="0" x2="264.59999999999997" y2="378"></line><line x1="340.2" y1="0" x2="340.2" y2="378"></line>
      </pattern><pattern id="rrreplicate-pattern3" width="378" height="378" patternUnits="userSpaceOnUse" patternTransform="rotate(92)" stroke-opacity="1" stroke-width="1.4" fill="none" stroke="#ffcb00">
      <line x1="37.8" y1="0" x2="37.8" y2="378"></line><line x1="113.39999999999999" y1="0" x2="113.39999999999999" y2="378"></line><line x1="189" y1="0" x2="189" y2="378"></line><line x1="264.59999999999997" y1="0" x2="264.59999999999997" y2="378"></line><line x1="340.2" y1="0" x2="340.2" y2="378"></line>
      </pattern></defs></svg>