<svg xmlns="http://www.w3.org/2000/svg" version="1.1" xmlns:xlink="http://www.w3.org/1999/xlink" xmlns:svgjs="http://svgjs.dev/svgjs" viewBox="0 0 800 800"><g fill="none" stroke-width="1.5" stroke="hsl(335, 77%, 50%)" stroke-linecap="round" stroke-dasharray="19 0"><line x1="-793" y1="400" x2="1593" y2="400" transform="rotate(0, 400, 400)" opacity="0.15"></line><line x1="-811" y1="400" x2="1611" y2="400" transform="rotate(4, 400, 400)" opacity="0.23"></line><line x1="-65.5" y1="400" x2="865.5" y2="400" transform="rotate(8, 400, 400)" opacity="0.37"></line><line x1="-722.5" y1="400" x2="1522.5" y2="400" transform="rotate(12, 400, 400)" opacity="0.77"></line><line x1="-649" y1="400" x2="1449" y2="400" transform="rotate(16, 400, 400)" opacity="0.45"></line><line x1="-220" y1="400" x2="1020" y2="400" transform="rotate(20, 400, 400)" opacity="0.18"></line><line x1="-39" y1="400" x2="839" y2="400" transform="rotate(24, 400, 400)" opacity="0.33"></line><line x1="-32.5" y1="400" x2="832.5" y2="400" transform="rotate(28, 400, 400)" opacity="0.89"></line><line x1="-491.5" y1="400" x2="1291.5" y2="400" transform="rotate(32, 400, 400)" opacity="0.10"></line><line x1="38" y1="400" x2="762" y2="400" transform="rotate(36, 400, 400)" opacity="0.10"></line><line x1="-303" y1="400" x2="1103" y2="400" transform="rotate(40, 400, 400)" opacity="0.82"></line><line x1="-270" y1="400" x2="1070" y2="400" transform="rotate(44, 400, 400)" opacity="0.70"></line><line x1="-262.5" y1="400" x2="1062.5" y2="400" transform="rotate(48, 400, 400)" opacity="0.99"></line><line x1="-164.5" y1="400" x2="964.5" y2="400" transform="rotate(52, 400, 400)" opacity="0.82"></line><line x1="-534" y1="400" x2="1334" y2="400" transform="rotate(56, 400, 400)" opacity="0.36"></line><line x1="-284.5" y1="400" x2="1084.5" y2="400" transform="rotate(60, 400, 400)" opacity="0.27"></line><line x1="-326.5" y1="400" x2="1126.5" y2="400" transform="rotate(64, 400, 400)" opacity="0.27"></line><line x1="-261" y1="400" x2="1061" y2="400" transform="rotate(68, 400, 400)" opacity="0.16"></line><line x1="169" y1="400" x2="631" y2="400" transform="rotate(72, 400, 400)" opacity="0.60"></line><line x1="-58" y1="400" x2="858" y2="400" transform="rotate(76, 400, 400)" opacity="0.37"></line><line x1="-795.5" y1="400" x2="1595.5" y2="400" transform="rotate(80, 400, 400)" opacity="0.83"></line><line x1="-3" y1="400" x2="803" y2="400" transform="rotate(84, 400, 400)" opacity="0.45"></line><line x1="-793.5" y1="400" x2="1593.5" y2="400" transform="rotate(88, 400, 400)" opacity="0.47"></line><line x1="-632" y1="400" x2="1432" y2="400" transform="rotate(92, 400, 400)" opacity="0.20"></line><line x1="-691" y1="400" x2="1491" y2="400" transform="rotate(96, 400, 400)" opacity="0.92"></line><line x1="-801.5" y1="400" x2="1601.5" y2="400" transform="rotate(100, 400, 400)" opacity="0.97"></line><line x1="91.5" y1="400" x2="708.5" y2="400" transform="rotate(104, 400, 400)" opacity="0.13"></line><line x1="-372.5" y1="400" x2="1172.5" y2="400" transform="rotate(108, 400, 400)" opacity="0.71"></line><line x1="-805" y1="400" x2="1605" y2="400" transform="rotate(112, 400, 400)" opacity="0.19"></line><line x1="-111" y1="400" x2="911" y2="400" transform="rotate(116, 400, 400)" opacity="0.76"></line><line x1="-735.5" y1="400" x2="1535.5" y2="400" transform="rotate(120, 400, 400)" opacity="0.22"></line><line x1="-399.5" y1="400" x2="1199.5" y2="400" transform="rotate(124, 400, 400)" opacity="0.25"></line><line x1="-607" y1="400" x2="1407" y2="400" transform="rotate(128, 400, 400)" opacity="0.69"></line><line x1="-618" y1="400" x2="1418" y2="400" transform="rotate(132, 400, 400)" opacity="0.43"></line><line x1="-711.5" y1="400" x2="1511.5" y2="400" transform="rotate(136, 400, 400)" opacity="0.72"></line><line x1="-615" y1="400" x2="1415" y2="400" transform="rotate(140, 400, 400)" opacity="0.39"></line><line x1="-724.5" y1="400" x2="1524.5" y2="400" transform="rotate(144, 400, 400)" opacity="0.51"></line><line x1="-848" y1="400" x2="1648" y2="400" transform="rotate(148, 400, 400)" opacity="0.53"></line><line x1="41.5" y1="400" x2="758.5" y2="400" transform="rotate(152, 400, 400)" opacity="0.63"></line><line x1="-464.5" y1="400" x2="1264.5" y2="400" transform="rotate(156, 400, 400)" opacity="0.33"></line><line x1="-298" y1="400" x2="1098" y2="400" transform="rotate(160, 400, 400)" opacity="0.30"></line><line x1="-442" y1="400" x2="1242" y2="400" transform="rotate(164, 400, 400)" opacity="0.29"></line><line x1="-632" y1="400" x2="1432" y2="400" transform="rotate(168, 400, 400)" opacity="0.35"></line><line x1="-54.5" y1="400" x2="854.5" y2="400" transform="rotate(172, 400, 400)" opacity="0.72"></line><line x1="103.5" y1="400" x2="696.5" y2="400" transform="rotate(176, 400, 400)" opacity="0.55"></line><line x1="-572" y1="400" x2="1372" y2="400" transform="rotate(180, 400, 400)" opacity="0.70"></line><line x1="-838.5" y1="400" x2="1638.5" y2="400" transform="rotate(184, 400, 400)" opacity="0.82"></line><line x1="-566.5" y1="400" x2="1366.5" y2="400" transform="rotate(188, 400, 400)" opacity="0.54"></line><line x1="-311.5" y1="400" x2="1111.5" y2="400" transform="rotate(192, 400, 400)" opacity="0.20"></line><line x1="-724" y1="400" x2="1524" y2="400" transform="rotate(196, 400, 400)" opacity="0.38"></line><line x1="-195.5" y1="400" x2="995.5" y2="400" transform="rotate(200, 400, 400)" opacity="0.34"></line><line x1="-348" y1="400" x2="1148" y2="400" transform="rotate(204, 400, 400)" opacity="0.34"></line><line x1="-631" y1="400" x2="1431" y2="400" transform="rotate(208, 400, 400)" opacity="0.22"></line><line x1="-110.5" y1="400" x2="910.5" y2="400" transform="rotate(212, 400, 400)" opacity="0.32"></line><line x1="-632.5" y1="400" x2="1432.5" y2="400" transform="rotate(216, 400, 400)" opacity="0.63"></line><line x1="140.5" y1="400" x2="659.5" y2="400" transform="rotate(220, 400, 400)" opacity="0.29"></line><line x1="-760" y1="400" x2="1560" y2="400" transform="rotate(224, 400, 400)" opacity="0.42"></line><line x1="-655" y1="400" x2="1455" y2="400" transform="rotate(228, 400, 400)" opacity="0.37"></line><line x1="-139.5" y1="400" x2="939.5" y2="400" transform="rotate(232, 400, 400)" opacity="0.55"></line><line x1="185.5" y1="400" x2="614.5" y2="400" transform="rotate(236, 400, 400)" opacity="0.43"></line><line x1="45" y1="400" x2="755" y2="400" transform="rotate(240, 400, 400)" opacity="0.44"></line><line x1="-238" y1="400" x2="1038" y2="400" transform="rotate(244, 400, 400)" opacity="0.45"></line><line x1="-369.5" y1="400" x2="1169.5" y2="400" transform="rotate(248, 400, 400)" opacity="0.24"></line><line x1="-129" y1="400" x2="929" y2="400" transform="rotate(252, 400, 400)" opacity="0.90"></line><line x1="-537.5" y1="400" x2="1337.5" y2="400" transform="rotate(256, 400, 400)" opacity="0.24"></line><line x1="-687" y1="400" x2="1487" y2="400" transform="rotate(260, 400, 400)" opacity="0.95"></line><line x1="169.5" y1="400" x2="630.5" y2="400" transform="rotate(264, 400, 400)" opacity="0.35"></line><line x1="68" y1="400" x2="732" y2="400" transform="rotate(268, 400, 400)" opacity="0.40"></line><line x1="-31" y1="400" x2="831" y2="400" transform="rotate(272, 400, 400)" opacity="0.79"></line><line x1="-834.5" y1="400" x2="1634.5" y2="400" transform="rotate(276, 400, 400)" opacity="0.71"></line><line x1="-225" y1="400" x2="1025" y2="400" transform="rotate(280, 400, 400)" opacity="0.83"></line><line x1="-654" y1="400" x2="1454" y2="400" transform="rotate(284, 400, 400)" opacity="0.61"></line><line x1="-761" y1="400" x2="1561" y2="400" transform="rotate(288, 400, 400)" opacity="0.89"></line><line x1="-424" y1="400" x2="1224" y2="400" transform="rotate(292, 400, 400)" opacity="0.67"></line><line x1="-558" y1="400" x2="1358" y2="400" transform="rotate(296, 400, 400)" opacity="0.32"></line><line x1="-245" y1="400" x2="1045" y2="400" transform="rotate(300, 400, 400)" opacity="0.70"></line><line x1="-462.5" y1="400" x2="1262.5" y2="400" transform="rotate(304, 400, 400)" opacity="0.51"></line><line x1="151" y1="400" x2="649" y2="400" transform="rotate(308, 400, 400)" opacity="0.13"></line><line x1="-227" y1="400" x2="1027" y2="400" transform="rotate(312, 400, 400)" opacity="0.55"></line><line x1="-337.5" y1="400" x2="1137.5" y2="400" transform="rotate(316, 400, 400)" opacity="0.57"></line><line x1="-232" y1="400" x2="1032" y2="400" transform="rotate(320, 400, 400)" opacity="0.33"></line><line x1="-639" y1="400" x2="1439" y2="400" transform="rotate(324, 400, 400)" opacity="0.86"></line><line x1="16" y1="400" x2="784" y2="400" transform="rotate(328, 400, 400)" opacity="0.48"></line><line x1="-288.5" y1="400" x2="1088.5" y2="400" transform="rotate(332, 400, 400)" opacity="0.37"></line><line x1="-355" y1="400" x2="1155" y2="400" transform="rotate(336, 400, 400)" opacity="0.82"></line><line x1="-800" y1="400" x2="1600" y2="400" transform="rotate(340, 400, 400)" opacity="0.61"></line><line x1="-773.5" y1="400" x2="1573.5" y2="400" transform="rotate(344, 400, 400)" opacity="0.24"></line><line x1="-139" y1="400" x2="939" y2="400" transform="rotate(348, 400, 400)" opacity="0.21"></line></g></svg>